<?xml version="1.0" standalone="no"?>
<!DOCTYPE svg PUBLIC "-//W3C//DTD SVG 20010904//EN"
 "http://www.w3.org/TR/2001/REC-SVG-20010904/DTD/svg10.dtd">
<svg version="1.0" xmlns="http://www.w3.org/2000/svg"
 width="106.000000pt" height="109.000000pt" viewBox="0 0 106.000000 109.000000"
 preserveAspectRatio="xMidYMid meet">

<g transform="translate(0.000000,109.000000) scale(0.100000,-0.100000)"
fill="#000000" stroke="none">
<path d="M440 1064 c-82 -32 -159 -90 -209 -157 -38 -52 -91 -179 -91 -218 0
-46 70 68 85 139 8 40 20 41 45 0 18 -30 22 -32 70 -29 27 1 50 -1 50 -5 0
-20 -86 -94 -110 -94 -14 -1 -43 -9 -65 -20 -22 -11 -48 -19 -57 -20 -10 0
-18 -4 -18 -10 0 -15 30 -12 87 10 51 19 69 16 58 -12 -5 -12 -110 -58 -134
-58 -6 0 -11 -7 -11 -15 0 -19 13 -19 48 -1 55 28 72 29 72 6 0 -13 -10 -24
-27 -31 -62 -23 -83 -35 -83 -46 0 -18 35 -16 50 2 16 19 50 20 50 1 0 -8 -17
-25 -37 -37 -21 -12 -40 -24 -42 -25 -1 -2 0 -8 4 -13 4 -8 16 -6 36 6 21 13
32 14 40 6 8 -8 1 -17 -25 -35 -26 -18 -33 -27 -24 -36 12 -12 58 12 58 32 0
7 16 18 35 25 22 8 35 19 35 30 0 10 13 35 30 57 28 38 29 42 23 116 -6 81 6
132 33 142 12 4 12 2 4 -14 -6 -11 -8 -20 -6 -20 3 0 13 14 21 31 10 18 22 29
30 25 7 -2 19 2 25 9 7 8 16 13 20 10 4 -3 24 2 44 10 30 13 44 13 75 4 41
-12 72 -53 48 -63 -9 -3 -8 -5 1 -5 7 -1 11 -5 8 -10 -3 -4 -17 -6 -32 -3 -19
3 -22 7 -12 13 10 7 9 9 -3 9 -16 0 -29 -19 -29 -42 0 -5 17 -8 38 -6 32 3 37
0 40 -19 5 -35 -34 -99 -66 -111 -52 -18 -112 33 -115 98 -2 30 1 32 31 35 18
1 36 5 39 8 11 11 -6 37 -24 37 -14 0 -15 -2 -5 -9 10 -6 7 -10 -12 -13 -24
-5 -26 -2 -27 31 0 29 -2 32 -9 16 -15 -36 -10 -113 11 -166 l20 -53 -33 -64
-32 -64 32 -62 c38 -71 39 -83 13 -135 -24 -47 -30 -92 -13 -98 7 -3 12 5 12
20 0 14 12 50 26 81 l26 56 -31 55 c-35 62 -39 105 -13 143 10 15 21 34 25 43
4 13 17 16 52 15 45 -2 48 -5 76 -52 16 -27 29 -55 29 -63 0 -8 -14 -42 -32
-77 l-32 -62 22 -57 c12 -31 22 -68 22 -81 0 -13 5 -24 10 -24 21 0 22 32 1
82 -27 66 -26 104 4 153 30 49 31 78 5 115 -32 45 -34 81 -9 155 21 63 22 69
7 115 -15 47 -15 48 3 37 43 -27 48 -101 14 -188 l-18 -47 31 -49 c18 -27 32
-59 32 -70 0 -11 -14 -46 -31 -78 l-31 -58 26 -57 c14 -32 26 -65 26 -74 0 -9
5 -16 10 -16 16 0 12 34 -12 95 l-21 57 26 54 c32 65 33 87 7 124 -36 50 -40
75 -24 125 16 45 15 122 -1 158 -7 17 -6 18 13 6 11 -7 19 -16 16 -20 -2 -4 4
-6 13 -5 30 2 47 -68 33 -138 -11 -58 -11 -59 19 -101 17 -24 31 -50 31 -58 0
-19 18 -34 53 -42 15 -4 27 -13 27 -20 0 -7 11 -20 24 -28 19 -13 25 -14 29
-3 3 7 -8 20 -24 30 -30 17 -40 46 -16 46 7 0 22 -7 33 -15 24 -18 34 -19 34
-2 0 7 -18 24 -40 37 -64 40 -46 70 19 33 22 -13 33 -15 41 -7 8 8 0 17 -30
33 -22 11 -47 21 -54 21 -13 0 -26 20 -26 41 0 14 22 11 63 -11 42 -23 67 -26
67 -7 0 6 -27 20 -59 30 -62 20 -101 42 -101 58 0 14 52 10 80 -6 14 -8 38
-14 54 -15 27 0 28 1 22 38 -12 68 -47 159 -77 206 -117 176 -349 253 -539
180z m174 -29 c5 -18 13 -25 31 -25 32 0 38 -13 14 -33 -16 -14 -17 -21 -9
-38 6 -11 14 -19 18 -17 35 19 85 38 89 34 2 -2 0 -13 -6 -24 -18 -34 -13 -41
19 -29 42 16 45 5 14 -43 -22 -33 -32 -40 -48 -35 -121 34 -141 35 -222 15
-43 -11 -81 -17 -84 -13 -4 5 -17 25 -29 46 l-23 37 24 0 c13 0 30 -6 37 -12
11 -11 13 -9 8 7 -2 11 -8 28 -12 38 -10 23 6 22 57 -4 33 -17 42 -18 49 -7
14 21 10 37 -11 48 -25 13 -17 30 14 30 15 0 27 9 34 25 6 14 16 25 21 25 5 0
12 -11 15 -25z m356 -202 c0 -28 36 -109 66 -150 20 -28 9 -29 -56 -3 -28 11
-61 20 -72 20 -22 0 -108 75 -108 93 0 5 24 7 54 5 53 -4 54 -4 70 29 19 41
46 44 46 6z"/>
<path d="M575 910 c-4 -6 5 -10 20 -10 15 0 24 4 20 10 -3 6 -12 10 -20 10 -8
0 -17 -4 -20 -10z"/>
<path d="M450 766 c-14 -39 -12 -91 5 -133 21 -50 19 -66 -15 -121 -16 -27
-30 -55 -30 -63 0 -8 14 -40 31 -72 l30 -58 -25 -56 c-27 -58 -33 -93 -16 -93
6 0 10 6 10 13 0 8 11 36 25 63 31 61 31 75 0 124 -40 63 -41 88 -6 140 37 54
37 65 9 142 -18 50 -19 65 -10 95 13 44 7 58 -8 19z"/>
<path d="M781 705 c-1 -22 -7 -60 -15 -85 -15 -51 -13 -62 21 -106 30 -40 29
-82 -2 -144 l-25 -50 27 -60 c17 -39 30 -57 36 -51 6 6 3 22 -10 43 -24 41
-34 76 -23 83 5 3 12 -4 15 -15 11 -35 49 -89 60 -86 6 2 9 13 7 26 -2 19 1
21 21 16 32 -8 41 3 20 26 -20 22 -9 36 17 20 26 -16 38 4 16 26 -14 14 -18
15 -25 3 -6 -10 -19 -12 -44 -7 -42 8 -70 35 -57 56 16 25 11 76 -9 101 -42
55 -44 68 -26 129 13 44 15 64 7 86 -10 29 -10 29 -11 -11z"/>
<path d="M401 701 c0 -14 4 -50 11 -82 11 -56 11 -57 -20 -104 -34 -52 -39
-74 -21 -108 10 -18 8 -24 -15 -44 -29 -24 -65 -30 -83 -12 -13 13 -47 -17
-37 -33 4 -6 10 -6 17 1 6 6 20 11 30 11 18 0 18 -1 3 -24 -18 -29 -4 -45 21
-24 15 12 16 10 10 -14 -16 -63 39 -30 65 40 7 17 16 32 20 32 16 0 8 -38 -17
-83 -14 -25 -22 -48 -17 -51 10 -6 62 90 62 113 0 7 -11 33 -25 59 -33 61 -32
89 7 146 l31 48 -16 52 c-9 28 -18 62 -20 76 l-4 25 -2 -24z"/>
<path d="M575 640 c3 -5 12 -10 20 -10 8 0 17 5 20 10 4 6 -5 10 -20 10 -15 0
-24 -4 -20 -10z"/>
</g>
</svg>
